<svg width="24" height="24" viewBox="0 0 24 24" fill="none" xmlns="http://www.w3.org/2000/svg">
<g clip-path="url(#clip0_1_252)">
<path d="M2.03164 3.8548C2.55261 2.89968 3.28415 2.14516 4.2191 1.60058C5.16334 1.03078 6.24034 0.753418 7.43191 0.753418C8.64098 0.753418 9.72831 1.02982 10.6742 1.60058C11.6091 2.14517 12.3406 2.89968 12.8616 3.8548C13.384 4.81238 13.6396 5.88177 13.6396 7.04953V17.3331C13.6396 17.7659 13.7424 18.1443 13.942 18.4821C14.1504 18.8346 14.4172 19.1083 14.7448 19.3122C15.0882 19.514 15.4466 19.6116 15.8297 19.6116C16.2144 19.6116 16.5603 19.5133 16.88 19.3153C17.2058 19.1137 17.4602 18.8447 17.6486 18.4994L17.6534 18.4906L17.6584 18.4821C17.858 18.1443 17.9608 17.7659 17.9608 17.3331V1.68672V1.10701H18.5406H21.3693H21.949V1.68672V16.9501C21.949 18.1178 21.6934 19.1872 21.171 20.1448C20.6522 21.096 19.9343 21.8583 19.0225 22.4227L19.0182 22.4254L19.0138 22.4279C18.0867 22.9799 17.0186 23.2462 15.8297 23.2462C14.6404 23.2462 13.5651 22.9797 12.6212 22.431L12.6142 22.4269L12.6074 22.4227C11.6956 21.8583 10.9777 21.096 10.4589 20.1448C9.93658 19.1872 9.68091 18.1178 9.68091 16.9501V6.66646C9.68091 6.23372 9.57804 5.85528 9.37851 5.51754C9.17284 5.16957 8.89931 4.89604 8.55138 4.69041C8.21011 4.48878 7.84078 4.38798 7.43191 4.38798C7.02506 4.38798 6.65738 4.48777 6.31759 4.68739C5.9926 4.88967 5.72748 5.16054 5.51992 5.5089C5.33726 5.84724 5.24182 6.2291 5.24182 6.66646V22.3129V22.8926H4.6621H1.83338H1.25366V22.3129V7.04953C1.25366 5.88177 1.50932 4.81238 2.03164 3.8548ZM2.03164 3.8548L2.5313 4.12734" stroke="url(#paint0_linear_1_252)" stroke-width="1.15942"/>
</g>
<defs>
<linearGradient id="paint0_linear_1_252" x1="23.261" y1="0.213442" x2="0.547702" y2="24.1545" gradientUnits="userSpaceOnUse">
<stop stop-color="#5EEAD4"/>
<stop offset="1" stop-color="#0D9488"/>
</linearGradient>
<clipPath id="clip0_1_252">
<rect width="22.6667" height="24" fill="white" transform="translate(0.5)"/>
</clipPath>
</defs>
</svg>
